<svg width="155" height="57" viewBox="0 0 155 57" fill="none" xmlns="http://www.w3.org/2000/svg">
<path d="M55.8309 25.6312L52.9048 21.6439C52.6347 21.2758 52.4997 21.0918 52.3305 20.9516C52.1805 20.8273 52.0113 20.7287 51.8296 20.6598C51.6247 20.582 51.3992 20.556 50.9483 20.5039L46.0636 19.9402L50.0146 16.9871C50.3793 16.7145 50.5617 16.5783 50.7006 16.4075C50.8238 16.2562 50.9215 16.0854 50.9898 15.9021C51.0669 15.6952 51.0926 15.4677 51.1441 15.0126L51.7028 10.0831L54.6289 14.0703C54.899 14.4384 55.0341 14.6224 55.2033 14.7627C55.3533 14.887 55.5225 14.9856 55.7041 15.0545C55.9091 15.1323 56.1345 15.1583 56.5854 15.2103L61.4701 15.7741L57.5191 18.7271C57.1544 18.9997 56.9721 19.136 56.8331 19.3067C56.71 19.4581 56.6123 19.6289 56.544 19.8122C56.4669 20.019 56.4411 20.2465 56.3896 20.7016L55.8309 25.6312Z" fill="#B1C5FF"/>
<path fill-rule="evenodd" clip-rule="evenodd" d="M49.6646 23.3032C50.103 23.3293 50.3221 23.3424 50.5242 23.4065C50.7033 23.4634 50.872 23.5496 51.0234 23.6616C51.1942 23.788 51.3344 23.9586 51.6146 24.2997L53.7397 26.8859C54.0648 27.2815 54.272 27.7661 54.272 28.2781C54.272 29.629 54.0468 30.9483 53.5965 32.236C53.1461 33.5237 52.3956 34.6032 51.3447 35.4743C50.2939 36.3454 48.9241 36.7809 47.2353 36.7809C45.5715 36.7809 44.2892 36.3012 43.3885 35.3417C42.5003 34.3822 42.0562 33.044 42.0562 31.327C42.0562 29.9762 42.2814 28.6569 42.7317 27.3692C43.1821 26.0815 43.9327 25.0083 44.9835 24.1498C46.1037 23.2321 47.6485 23.183 49.0941 23.2692L49.6646 23.3032ZM48.7927 25.608C48.0546 25.608 47.4729 25.9552 47.0476 26.6496C46.6348 27.3439 46.3471 28.1519 46.1845 29.0735C46.0343 29.9825 45.9592 30.841 45.9592 31.6489C45.9592 32.4948 46.0844 33.1008 46.3346 33.4669C46.5973 33.833 46.9976 34.0161 47.5355 34.0161C48.2735 34.0161 48.849 33.6752 49.2618 32.9935C49.6872 32.2991 49.9749 31.4911 50.125 30.5695C50.2876 29.6479 50.3689 28.7705 50.3689 27.9373C50.3689 27.104 50.2376 26.5107 49.9749 26.1572C49.7247 25.7911 49.3306 25.608 48.7927 25.608Z" fill="#485D92"/>
<path fill-rule="evenodd" clip-rule="evenodd" d="M25.6697 23.2219C27.2584 23.2219 28.4906 23.5502 29.3663 24.2066C30.2545 24.8505 30.6986 25.791 30.6986 27.0283C30.6986 27.8867 30.4985 28.72 30.0982 29.528C29.6978 30.3234 29.0598 30.9861 28.1841 31.5164C27.3084 32.034 26.2013 32.2928 24.8628 32.2928H23.5868L23.0238 36.4022H19.2334L21.0536 23.2219H25.6697ZM23.9621 29.5469H24.8253C25.5383 29.5469 26.045 29.3071 26.3452 28.8273C26.6455 28.3476 26.7956 27.8236 26.7956 27.2555C26.7955 26.3718 26.2889 25.9299 25.2756 25.9299H24.4688L23.9621 29.5469Z" fill="#485D92"/>
<path fill-rule="evenodd" clip-rule="evenodd" d="M37.015 23.2219C38.6162 23.2219 39.8422 23.5502 40.6928 24.2066C41.5435 24.8631 41.9688 25.7469 41.9688 26.8578C41.9688 27.7668 41.7749 28.5622 41.3871 29.2439C41.0118 29.9131 40.28 30.5254 39.1917 31.0809L41.5373 36.4022H37.409L35.6827 31.7058H34.9134L34.2753 36.4022H30.4849L32.305 23.2219H37.015ZM35.2886 29.0924H36.2644C36.8773 29.0924 37.3277 28.8967 37.6154 28.5054C37.9156 28.114 38.0658 27.6469 38.0658 27.104C38.0658 26.296 37.5591 25.892 36.5459 25.892H35.7202L35.2886 29.0924Z" fill="#485D92"/>
<path fill-rule="evenodd" clip-rule="evenodd" d="M60.8534 23.2219C62.4421 23.2219 63.6744 23.5502 64.55 24.2066C65.4382 24.8505 65.8824 25.791 65.8824 27.0283C65.8824 27.8867 65.6822 28.72 65.2819 29.528C64.8816 30.3234 64.2435 30.9861 63.3679 31.5164C62.4922 32.034 61.3851 32.2928 60.0465 32.2928H58.7705L58.2076 36.4022H54.4171L57.3153 25.4542C57.6636 24.1384 58.8542 23.2219 60.2154 23.2219H60.8534ZM59.1458 29.5469H60.009C60.7221 29.5469 61.2287 29.3071 61.529 28.8273C61.8292 28.3476 61.9793 27.8236 61.9793 27.2555C61.9793 26.3718 61.4726 25.9299 60.4594 25.9299H59.6525L59.1458 29.5469Z" fill="#485D92"/>
<path d="M75.1447 25.9299H70.904L70.5662 28.3917H74.2628L73.925 31.024H70.2097L69.8344 33.6752H74.3754L74.0001 36.4022H65.6686L67.4888 23.2219H75.9141L75.1447 25.9299Z" fill="#485D92"/>
<path fill-rule="evenodd" clip-rule="evenodd" d="M81.7643 23.2219C83.3655 23.2219 84.5915 23.5502 85.4422 24.2066C86.2928 24.8631 86.7181 25.7469 86.7181 26.8578C86.7181 27.7668 86.5242 28.5622 86.1364 29.2439C85.7611 29.9131 85.0293 30.5254 83.941 31.0809L86.2866 36.4022H82.1583L80.432 31.7058H79.6627L79.0246 36.4022H75.2342L77.0543 23.2219H81.7643ZM80.0379 29.0924H81.0137C81.6267 29.0924 82.077 28.8967 82.3647 28.5054C82.665 28.114 82.8151 27.6469 82.8151 27.104C82.8151 26.296 82.3085 25.892 81.2952 25.892H80.4695L80.0379 29.0924Z" fill="#485D92"/>
<path d="M97.464 23.3069C98.4523 23.3069 99.3217 23.4521 100.072 23.7425C100.835 24.0329 101.517 24.4684 102.118 25.0492L100.56 26.905C99.6595 26.1854 98.715 25.8256 97.7267 25.8256C97.2138 25.8256 96.8197 25.9266 96.5445 26.1286C96.2818 26.318 96.1505 26.5894 96.1505 26.9429C96.1505 27.1954 96.2193 27.4037 96.3569 27.5678C96.4945 27.7319 96.7259 27.8898 97.0512 28.0412C97.3764 28.1927 97.8893 28.3821 98.5899 28.6094C99.9284 29.0386 100.904 29.5815 101.517 30.238C102.143 30.8818 102.455 31.7782 102.455 32.927C102.455 33.7603 102.243 34.4988 101.817 35.1427C101.392 35.7739 100.773 36.2663 99.9597 36.6198C99.1591 36.9733 98.2146 37.15 97.1262 37.15C95.0496 37.15 93.3545 36.5125 92.041 35.2374L93.7486 33.3247C94.7869 34.1832 95.869 34.6125 96.9949 34.6125C97.5828 34.6125 98.0395 34.4862 98.3647 34.2337C98.69 33.9686 98.8526 33.6214 98.8526 33.1922C98.8526 32.8892 98.79 32.643 98.6649 32.4536C98.5398 32.2516 98.3147 32.0749 97.9894 31.9234C97.6767 31.7593 97.2138 31.5825 96.6008 31.3931C95.1247 30.926 94.0864 30.3642 93.4859 29.7077C92.8854 29.0512 92.5852 28.2243 92.5852 27.2269C92.5852 26.4442 92.7916 25.7562 93.2044 25.1628C93.6298 24.5694 94.2115 24.1149 94.9495 23.7993C95.7001 23.4711 96.5383 23.3069 97.464 23.3069Z" fill="#485D92"/>
<path d="M109.306 23.3069C111.195 23.3069 112.665 23.9129 113.716 25.1249C114.766 26.3369 115.292 28.0349 115.292 30.219C115.292 31.6456 115.054 32.8829 114.579 33.9307C114.116 34.966 113.434 35.7613 112.533 36.3168C111.633 36.8723 110.557 37.15 109.306 37.15C107.417 37.15 105.947 36.5441 104.896 35.3321C103.858 34.1201 103.339 32.4157 103.339 30.219C103.339 28.7924 103.57 27.5615 104.033 26.5263C104.508 25.491 105.19 24.6957 106.078 24.1402C106.979 23.5847 108.055 23.3069 109.306 23.3069ZM109.306 25.8256C108.493 25.8256 107.892 26.1665 107.505 26.8482C107.129 27.5299 106.942 28.6536 106.942 30.219C106.942 31.7845 107.136 32.9144 107.523 33.6088C107.911 34.2905 108.505 34.6314 109.306 34.6314C110.132 34.6314 110.732 34.2905 111.107 33.6088C111.483 32.927 111.67 31.7971 111.67 30.219C111.67 28.6536 111.483 27.5299 111.107 26.8482C110.732 26.1665 110.132 25.8256 109.306 25.8256Z" fill="#485D92"/>
<path d="M116.801 36.8092V23.6478H124.814L124.457 26.1286H120.273V29.2911H123.95V31.7719H120.273V36.8092H116.801Z" fill="#485D92"/>
<path d="M131.841 36.8092L131.26 34.1201H127.807L127.225 36.8092H123.623L127.488 23.6478H131.654L135.519 36.8092H131.841ZM128.351 31.6204H130.716L129.533 26.1475L128.351 31.6204Z" fill="#485D92"/>
<path d="M70.0038 18.927L68.0244 16.2297C67.8417 15.9807 67.7503 15.8562 67.6359 15.7614C67.5344 15.6773 67.42 15.6106 67.297 15.564C67.1584 15.5114 67.0059 15.4937 66.7009 15.4585L63.3965 15.0772L66.0692 13.0795C66.316 12.8951 66.4393 12.803 66.5333 12.6874C66.6166 12.585 66.6827 12.4695 66.7289 12.3455C66.7811 12.2056 66.7985 12.0517 66.8334 11.7439L67.2113 8.40913L69.1907 11.1064C69.3734 11.3554 69.4648 11.4799 69.5792 11.5747C69.6807 11.6588 69.7952 11.7255 69.918 11.7722C70.0567 11.8248 70.2092 11.8424 70.5142 11.8776L73.8186 12.2589L71.1458 14.2566C70.8991 14.441 70.7758 14.5332 70.6818 14.6487C70.5985 14.7511 70.5324 14.8666 70.4862 14.9906C70.434 15.1305 70.4166 15.2844 70.3817 15.5922L70.0038 18.927Z" fill="#B1C5FF"/>
</svg>
